<svg xmlns="http://www.w3.org/2000/svg" viewBox="0 0 32 32" fill="none">
  <defs>
    <linearGradient id="g" x1="9" y1="6" x2="23" y2="26">
      <stop offset="0%" stop-color="#00E5FF"/>
      <stop offset="50%" stop-color="#00FF87"/>
      <stop offset="100%" stop-color="#C8F31E"/>
    </linearGradient>
    <linearGradient id="gl" x1="9" y1="18" x2="23" y2="18">
      <stop offset="0%" stop-color="#00E5FF" stop-opacity="0.45"/>
      <stop offset="100%" stop-color="#C8F31E" stop-opacity="0.25"/>
    </linearGradient>
    <radialGradient id="eye" cx="50%" cy="50%">
      <stop offset="0%" stop-color="#FBBF24" stop-opacity="0.95"/>
      <stop offset="100%" stop-color="#D97706" stop-opacity="0.15"/>
    </radialGradient>
    <radialGradient id="gw" cx="50%" cy="50%">
      <stop offset="0%" stop-color="#FBBF24" stop-opacity="0.35"/>
      <stop offset="100%" stop-color="#FBBF24" stop-opacity="0"/>
    </radialGradient>
    <clipPath id="cp"><path d="M9 6C9 6 10 11 11 14 12.5 18 15 21 16 22.5 17 21 19.5 18 21 14 22 11 23 6 23 6Z"/></clipPath>
  </defs>

  <path d="M23 12C27 12 28 17 28 19 28 21 26 24 22 23" stroke="url(#g)" stroke-width="1.6" stroke-linecap="round" fill="none"/>
  <path d="M9 6C9 6 10 11 11 14 12.5 18 15 21 16 22.5 17 21 19.5 18 21 14 22 11 23 6 23 6Z" stroke="url(#g)" stroke-width="1.6" stroke-linejoin="round" fill="none"/>
  <g clip-path="url(#cp)">
    <path d="M9 18C12 16.5 20 16.5 23 18L23 25C23 25 20 26 16 26 12 26 9 25 9 25Z" fill="url(#gl)"/>
  </g>
  <path d="M8 6L24 6" stroke="url(#g)" stroke-width="1.6" stroke-linecap="round"/>
  <g clip-path="url(#cp)">
    <circle cx="16" cy="21" r="2.5" fill="url(#gw)"/>
    <path d="M12 21C14 19 18 19 20 21 18 23 14 23 12 21Z" stroke="#FBBF24" stroke-width="0.9" fill="none"/>
    <path d="M16 19.5C16.7 20.3 16.7 21.7 16 22.5 15.3 21.7 15.3 20.3 16 19.5Z" fill="url(#eye)"/>
  </g>
  <path d="M16 22.5L16 25" stroke="url(#g)" stroke-width="1.6" stroke-linecap="round"/>
  <path d="M13 25L19 25" stroke="url(#g)" stroke-width="1.6" stroke-linecap="round"/>
  <circle cx="13" cy="3.5" r="1" fill="#C8F31E"/>
  <circle cx="19" cy="3.5" r="1" fill="#C8F31E"/>
</svg>
